<?xml version="1.0" encoding="UTF-8" standalone="no"?>
<!-- Created with Inkscape (http://www.inkscape.org/) -->

<svg
   version="1.1"
   id="svg2"
   width="666.66669"
   height="666.66669"
   viewBox="0 0 666.66669 666.66669"
   sodipodi:docname="22340840_6613245.ai"
   xmlns:inkscape="http://www.inkscape.org/namespaces/inkscape"
   xmlns:sodipodi="http://sodipodi.sourceforge.net/DTD/sodipodi-0.dtd"
   xmlns="http://www.w3.org/2000/svg"
   xmlns:svg="http://www.w3.org/2000/svg">
  <defs
     id="defs6">
    <clipPath
       clipPathUnits="userSpaceOnUse"
       id="clipPath18">
      <path
         d="M 0,500 H 500 V 0 H 0 Z"
         id="path16" />
    </clipPath>
  </defs>
  <sodipodi:namedview
     id="namedview4"
     pagecolor="#ffffff"
     bordercolor="#000000"
     borderopacity="0.25"
     inkscape:showpageshadow="2"
     inkscape:pageopacity="0.0"
     inkscape:pagecheckerboard="0"
     inkscape:deskcolor="#d1d1d1" />
  <g
     id="g8"
     inkscape:groupmode="layer"
     inkscape:label="22340840_6613245"
     transform="matrix(1.3333333,0,0,-1.3333333,0,666.66667)">
    <path
       d="M 0,0 H 500 V 500 H 0 Z"
       style="fill:#ffffff;fill-opacity:1;fill-rule:nonzero;stroke:none"
       id="path10" />
    <g
       id="g12">
      <g
         id="g14"
         clip-path="url(#clipPath18)">
        <g
           id="g20"
           transform="translate(377.4199,379.6479)">
          <path
             d="m 0,0 c 0,0 23.465,3.805 38.896,-18.814 15.433,-22.619 15.644,-24.099 15.644,-24.099 0,0 5.708,2.959 8.033,0 2.325,-2.96 -2.96,-6.553 -2.96,-6.553 0,0 6.554,0.845 5.919,-1.691 -0.634,-2.537 -3.804,-3.383 -3.804,-3.383 0,0 10.992,-14.375 -3.383,-43.547 -14.374,-29.172 -34.457,-32.555 -37.205,-31.497 -2.748,1.056 -6.13,2.113 -6.13,2.113 0,0 -13.952,-18.814 -40.165,-11.415 -26.213,7.399 -35.092,23.465 -35.092,23.465 0,0 -29.596,12.049 -30.863,50.1 -1.269,38.051 21.984,42.702 21.984,42.702 0,0 -3.594,4.016 -0.423,6.342 3.171,2.325 5.497,-2.96 5.497,-2.96 0,0 -2.537,7.611 0.422,8.456 2.96,0.845 6.131,-4.439 6.131,-4.439 0,0 15.009,15.702 28.961,15.461 13.952,-0.241 18.392,0.003 18.392,0.003 0,0 0,6.943 2.325,5.886 2.325,-1.056 2.325,-4.861 2.325,-4.861 0,0 3.171,6.349 5.708,4.971 C 2.748,4.862 0,0 0,0 Z"
             style="fill:none;stroke:#020202;stroke-width:3;stroke-linecap:round;stroke-linejoin:round;stroke-miterlimit:10;stroke-dasharray:none;stroke-opacity:1"
             id="path22" />
        </g>
        <g
           id="g24"
           transform="translate(357.3379,294.8789)">
          <path
             d="M 0,0 C 3.674,0.37 14.591,0.505 14.586,-2.325 14.58,-6.347 7.398,-10.358 4.228,-8.878 1.057,-7.399 -2.929,-0.295 0,0 Z"
             style="fill:none;stroke:#020202;stroke-width:3;stroke-linecap:round;stroke-linejoin:round;stroke-miterlimit:10;stroke-dasharray:none;stroke-opacity:1"
             id="path26" />
        </g>
        <g
           id="g28"
           transform="translate(409.0459,314.0664)">
          <path
             d="m 0,0 c -0.906,-7.534 -6.199,-13.093 -11.821,-12.417 -5.622,0.677 -9.444,7.334 -8.537,14.868 0.907,7.534 6.2,13.093 11.822,12.417 C -2.915,14.191 0.907,7.535 0,0"
             style="fill:#020202;fill-opacity:1;fill-rule:nonzero;stroke:none"
             id="path30" />
        </g>
        <g
           id="g32"
           transform="translate(347.8135,321.4385)">
          <path
             d="m 0,0 c -0.907,-7.535 -6.2,-13.094 -11.822,-12.417 -5.621,0.677 -9.444,7.334 -8.536,14.868 0.907,7.534 6.199,13.093 11.821,12.416 C -2.915,14.19 0.906,7.534 0,0"
             style="fill:#020202;fill-opacity:1;fill-rule:nonzero;stroke:none"
             id="path34" />
        </g>
        <g
           id="g36"
           transform="translate(363.04,285.6909)">
          <path
             d="M 0,0 C 0,0 2.965,-21.042 20.934,-10.895"
             style="fill:none;stroke:#020202;stroke-width:3;stroke-linecap:round;stroke-linejoin:round;stroke-miterlimit:10;stroke-dasharray:none;stroke-opacity:1"
             id="path38" />
        </g>
        <g
           id="g40"
           transform="translate(339.5811,282.4067)">
          <path
             d="m 0,0 c 0,0 4.65,-8.245 12.049,-6.13 7.399,2.113 11.41,9.414 11.41,9.414"
             style="fill:none;stroke:#020202;stroke-width:3;stroke-linecap:round;stroke-linejoin:round;stroke-miterlimit:10;stroke-dasharray:none;stroke-opacity:1"
             id="path42" />
        </g>
        <g
           id="g44"
           transform="translate(405.958,290.3809)">
          <path
             d="M 0,0 C 0,0 19.026,2.384 42.279,-15.796"
             style="fill:none;stroke:#020202;stroke-width:3;stroke-linecap:round;stroke-linejoin:round;stroke-miterlimit:10;stroke-dasharray:none;stroke-opacity:1"
             id="path46" />
        </g>
        <g
           id="g48"
           transform="translate(405.1133,278.8608)">
          <path
             d="M 0,0 C 0,0 14.586,-6.601 26.636,-24.993"
             style="fill:none;stroke:#020202;stroke-width:3;stroke-linecap:round;stroke-linejoin:round;stroke-miterlimit:10;stroke-dasharray:none;stroke-opacity:1"
             id="path50" />
        </g>
        <g
           id="g52"
           transform="translate(395.6006,268.666)">
          <path
             d="M 0,0 C 0,0 9.513,-8.033 15.009,-26.424"
             style="fill:none;stroke:#020202;stroke-width:3;stroke-linecap:round;stroke-linejoin:round;stroke-miterlimit:10;stroke-dasharray:none;stroke-opacity:1"
             id="path54" />
        </g>
        <g
           id="g56"
           transform="translate(326.8965,302.7007)">
          <path
             d="M 0,0 C 0,0 -25.79,7.821 -55.174,-2.114"
             style="fill:none;stroke:#020202;stroke-width:3;stroke-linecap:round;stroke-linejoin:round;stroke-miterlimit:10;stroke-dasharray:none;stroke-opacity:1"
             id="path58" />
        </g>
        <g
           id="g60"
           transform="translate(320.5547,293.188)">
          <path
             d="M 0,0 C 0,0 -27.058,-5.189 -41.222,-14.327"
             style="fill:none;stroke:#020202;stroke-width:3;stroke-linecap:round;stroke-linejoin:round;stroke-miterlimit:10;stroke-dasharray:none;stroke-opacity:1"
             id="path62" />
        </g>
        <g
           id="g64"
           transform="translate(317.8066,278.8608)">
          <path
             d="M 0,0 C 0,0 -19.236,-5.122 -24.521,-14.634"
             style="fill:none;stroke:#020202;stroke-width:3;stroke-linecap:round;stroke-linejoin:round;stroke-miterlimit:10;stroke-dasharray:none;stroke-opacity:1"
             id="path66" />
        </g>
        <g
           id="g68"
           transform="translate(287.5957,303.1064)">
          <path
             d="m 0,0 c 0,0 -17.775,-8.228 -23.482,-14.569 -5.708,-6.342 -24.417,-4.017 -47.565,4.651 -23.147,8.667 -60.247,17.762 -90.688,-7.502 -30.441,-25.265 -41.856,-59.934 -44.815,-86.992 -2.96,-27.059 -27.482,-44.816 -24.099,-57.499 3.382,-12.684 26.903,-48.26 29.296,-50.535 14.006,-13.318 11.746,-22.661 19.335,-24.21 10.13,-2.068 43.907,-3.254 51.992,-0.225 5.279,1.979 1.621,15.17 -1.691,20.853 -8.37,14.362 -23.47,11.587 -26.007,13.701 -2.536,2.113 -13.625,27.61 -13.625,27.61 0,0 40.901,2.236 62.463,22.952 21.562,20.717 21.985,36.784 16.066,55.809"
             style="fill:none;stroke:#020202;stroke-width:3;stroke-linecap:round;stroke-linejoin:round;stroke-miterlimit:10;stroke-dasharray:none;stroke-opacity:1"
             id="path70" />
        </g>
        <g
           id="g72"
           transform="translate(135.686,131.2461)">
          <path
             d="m 0,0 c 0,0 13.799,-29.985 32.813,-42.546 4.907,-3.242 7.04,-22.475 29.342,-24.03 16.5,-1.151 21.562,8.879 14.586,19.026 -6.976,10.147 -10.781,10.464 -10.781,10.464"
             style="fill:none;stroke:#020202;stroke-width:3;stroke-linecap:round;stroke-linejoin:round;stroke-miterlimit:10;stroke-dasharray:none;stroke-opacity:1"
             id="path74" />
        </g>
        <g
           id="g76"
           transform="translate(200.3774,105.5752)">
          <path
             d="m 0,0 c 0,0 22.051,-2.698 27.8,-18.329 4.833,-13.138 3.909,-22.576 -3.384,-22.576 H 0"
             style="fill:none;stroke:#020202;stroke-width:3;stroke-linecap:round;stroke-linejoin:round;stroke-miterlimit:10;stroke-dasharray:none;stroke-opacity:1"
             id="path78" />
        </g>
        <g
           id="g80"
           transform="translate(173.4365,146.8857)">
          <path
             d="M 0,0 C 0,0 37.088,-11.504 77.358,-1.674"
             style="fill:none;stroke:#020202;stroke-width:3;stroke-linecap:round;stroke-linejoin:round;stroke-miterlimit:10;stroke-dasharray:none;stroke-opacity:1"
             id="path82" />
        </g>
        <g
           id="g84"
           transform="translate(203.3457,105.0371)">
          <path
             d="M 0,0 -17.237,26.749 -4.82,37.163"
             style="fill:none;stroke:#020202;stroke-width:3;stroke-linecap:round;stroke-linejoin:round;stroke-miterlimit:10;stroke-dasharray:none;stroke-opacity:1"
             id="path86" />
        </g>
        <g
           id="g88"
           transform="translate(257.4541,216.5576)">
          <path
             d="m 0,0 c 0,0 -10.781,-59.613 -5.073,-78.956 5.707,-19.343 22.836,-53.879 22.836,-53.879 0,0 11.726,-17.467 21.874,-19.053 10.146,-1.585 23.358,3.489 20.716,12.685 -2.642,9.195 -9.619,11.415 -9.619,11.415"
             style="fill:none;stroke:#020202;stroke-width:3;stroke-linecap:round;stroke-linejoin:round;stroke-miterlimit:10;stroke-dasharray:none;stroke-opacity:1"
             id="path90" />
        </g>
        <g
           id="g92"
           transform="translate(321.8232,246.0469)">
          <path
             d="M 0,0 C 0,0 12.367,-14.586 7.293,-29.489 2.22,-44.393 -4.017,-50.418 -4.017,-50.418"
             style="fill:none;stroke:#020202;stroke-width:3;stroke-linecap:round;stroke-linejoin:round;stroke-miterlimit:10;stroke-dasharray:none;stroke-opacity:1"
             id="path94" />
        </g>
        <g
           id="g96"
           transform="translate(317.8066,220.8379)">
          <path
             d="m 0,0 c 0,0 2.432,-16.03 -4.861,-36.949 -7.294,-20.92 -13.636,-38.361 -13.636,-38.361 l 16.737,-41.825 c 0,0 19.164,-3.381 24.87,-10.811 5.48,-7.135 5.566,-23.465 -4.581,-28.222 h -35.44"
             style="fill:none;stroke:#020202;stroke-width:3;stroke-linecap:round;stroke-linejoin:round;stroke-miterlimit:10;stroke-dasharray:none;stroke-opacity:1"
             id="path98" />
        </g>
        <g
           id="g100"
           transform="translate(388.1123,247.8047)">
          <path
             d="m 0,0 c 0,0 0.617,-11.209 -5.407,-23.131 -6.025,-11.922 -13.635,-16.044 -13.635,-16.044 0,0 -27.979,-46.471 -67.103,-55.737"
             style="fill:none;stroke:#020202;stroke-width:3;stroke-linecap:round;stroke-linejoin:round;stroke-miterlimit:10;stroke-dasharray:none;stroke-opacity:1"
             id="path102" />
        </g>
        <g
           id="g104"
           transform="translate(361.4707,197.6797)">
          <path
             d="m 0,0 c 0,0 -14.01,-35.187 -31.132,-54.926 l 15.699,-37.178 c 0,0 20.82,-3.746 25.871,-10.963 6.66,-9.513 8.259,-28.357 -0.936,-29.943 h -37.479"
             style="fill:none;stroke:#020202;stroke-width:3;stroke-linecap:round;stroke-linejoin:round;stroke-miterlimit:10;stroke-dasharray:none;stroke-opacity:1"
             id="path106" />
        </g>
        <g
           id="g108"
           transform="translate(357.0205,92.8916)">
          <path
             d="M 0,0 C 0,0 13.635,-18.392 0,-28.222"
             style="fill:none;stroke:#020202;stroke-width:3;stroke-linecap:round;stroke-linejoin:round;stroke-miterlimit:10;stroke-dasharray:none;stroke-opacity:1"
             id="path110" />
        </g>
        <g
           id="g112"
           transform="translate(403.1045,373.6992)">
          <path
             d="M 0,0 C 0,0 29.384,40.406 38.58,32.479 47.775,24.552 60.765,-26 38.963,-55.423"
             style="fill:none;stroke:#020202;stroke-width:3;stroke-linecap:round;stroke-linejoin:round;stroke-miterlimit:10;stroke-dasharray:none;stroke-opacity:1"
             id="path114" />
        </g>
        <g
           id="g116"
           transform="translate(418.4307,357.7275)">
          <path
             d="m 0,0 c 0,0 16.277,35.133 21.985,36.084 5.707,0.951 10.061,-6.516 10.061,-6.516"
             style="fill:none;stroke:#020202;stroke-width:3;stroke-linecap:round;stroke-linejoin:round;stroke-miterlimit:10;stroke-dasharray:none;stroke-opacity:1"
             id="path118" />
        </g>
        <g
           id="g120"
           transform="translate(353.6768,379.8203)">
          <path
             d="M 0,0 C 0,0 -9.896,50.846 -21.557,47.467 -33.218,44.087 -66.163,3.966 -58.589,-31.861"
             style="fill:none;stroke:#020202;stroke-width:3;stroke-linecap:round;stroke-linejoin:round;stroke-miterlimit:10;stroke-dasharray:none;stroke-opacity:1"
             id="path122" />
        </g>
        <g
           id="g124"
           transform="translate(333.0811,374.8032)">
          <path
             d="m 0,0 c 0,0 -0.163,37.471 -4.956,40.711 -4.794,3.242 -11.86,-1.735 -11.86,-1.735"
             style="fill:none;stroke:#020202;stroke-width:3;stroke-linecap:round;stroke-linejoin:round;stroke-miterlimit:10;stroke-dasharray:none;stroke-opacity:1"
             id="path126" />
        </g>
        <g
           id="g128"
           transform="translate(255.1904,285.0581)">
          <path
             d="m 0,0 c 0,0 -23.457,-47.89 -22.805,-76.428 0,0 -17.197,40.598 -4.467,80.705"
             style="fill:none;stroke:#020202;stroke-width:3;stroke-linecap:round;stroke-linejoin:round;stroke-miterlimit:10;stroke-dasharray:none;stroke-opacity:1"
             id="path130" />
        </g>
        <g
           id="g132"
           transform="translate(216.5488,293.188)">
          <path
             d="m 0,0 c 0,0 -36.556,-29.323 -44.438,-68.514 0,0 -8.833,55.637 13.998,76.556"
             style="fill:none;stroke:#020202;stroke-width:3;stroke-linecap:round;stroke-linejoin:round;stroke-miterlimit:10;stroke-dasharray:none;stroke-opacity:1"
             id="path134" />
        </g>
        <g
           id="g136"
           transform="translate(162.0176,301.4712)">
          <path
             d="m 0,0 c 0,0 -26.644,-40.521 -24.107,-70.961 0,0 -15.244,28.437 -0.17,63.209"
             style="fill:none;stroke:#020202;stroke-width:3;stroke-linecap:round;stroke-linejoin:round;stroke-miterlimit:10;stroke-dasharray:none;stroke-opacity:1"
             id="path138" />
        </g>
        <g
           id="g140"
           transform="translate(120.3394,280.8101)">
          <path
             d="m 0,0 c 0,0 -25.871,-4.322 -37.286,27.704 -11.415,32.026 14.57,93.845 48.031,87.193 33.462,-6.652 27.754,-29.482 51.219,-25.36 23.465,4.122 13.635,45.661 -14.269,58.979 C 19.791,161.833 -23.968,165.308 -55.043,114.897 -86.118,64.486 -81.824,-5.498 -26.261,-35.985"
             style="fill:none;stroke:#020202;stroke-width:3;stroke-linecap:round;stroke-linejoin:round;stroke-miterlimit:10;stroke-dasharray:none;stroke-opacity:1"
             id="path142" />
        </g>
        <g
           id="g144"
           transform="translate(111.3027,391.7656)">
          <path
             d="m 0,0 c 0,0 1.875,17.838 8.216,24.846 0,0 2.616,-14.308 5.113,-20.457"
             style="fill:none;stroke:#020202;stroke-width:3;stroke-linecap:round;stroke-linejoin:round;stroke-miterlimit:10;stroke-dasharray:none;stroke-opacity:1"
             id="path146" />
        </g>
        <g
           id="g148"
           transform="translate(99.6802,381.3804)">
          <path
             d="m 0,0 c 0,0 -16.151,4.217 -23.761,10.385 0,0 1.886,-17.295 13.785,-26.254"
             style="fill:none;stroke:#020202;stroke-width:3;stroke-linecap:round;stroke-linejoin:round;stroke-miterlimit:10;stroke-dasharray:none;stroke-opacity:1"
             id="path150" />
        </g>
        <g
           id="g152"
           transform="translate(82.3403,344.0112)">
          <path
             d="m 0,0 c 0,0 -16.626,-0.613 -25.713,1.761 0,0 10.46,-18.696 23.834,-23.934"
             style="fill:none;stroke:#020202;stroke-width:3;stroke-linecap:round;stroke-linejoin:round;stroke-miterlimit:10;stroke-dasharray:none;stroke-opacity:1"
             id="path154" />
        </g>
        <g
           id="g156"
           transform="translate(84.3198,305.2505)">
          <path
             d="m 0,0 c 0,0 -10.462,-22.421 -17.121,-28.763 0,0 12.418,-3.616 31.101,10.242"
             style="fill:none;stroke:#020202;stroke-width:3;stroke-linecap:round;stroke-linejoin:round;stroke-miterlimit:10;stroke-dasharray:none;stroke-opacity:1"
             id="path158" />
        </g>
        <g
           id="g160"
           transform="translate(399.4551,319.3115)">
          <path
             d="m 0,0 c 0,-1.851 -1.501,-3.352 -3.353,-3.352 -1.851,0 -3.351,1.501 -3.351,3.352 0,1.852 1.5,3.352 3.351,3.352 C -1.501,3.352 0,1.852 0,0"
             style="fill:#ffffff;fill-opacity:1;fill-rule:nonzero;stroke:none"
             id="path162" />
        </g>
        <g
           id="g164"
           transform="translate(338.7275,327.2168)">
          <path
             d="m 0,0 c 0,-1.851 -1.5,-3.352 -3.352,-3.352 -1.851,0 -3.351,1.501 -3.351,3.352 0,1.852 1.5,3.352 3.351,3.352 C -1.5,3.352 0,1.852 0,0"
             style="fill:#ffffff;fill-opacity:1;fill-rule:nonzero;stroke:none"
             id="path166" />
        </g>
        <g
           id="g168"
           transform="translate(137.2676,87.0664)">
          <path
             d="M 0,0 C 0,0 11.662,-5.394 8.127,-22.486"
             style="fill:none;stroke:#020202;stroke-width:3;stroke-linecap:round;stroke-linejoin:round;stroke-miterlimit:10;stroke-dasharray:none;stroke-opacity:1"
             id="path170" />
        </g>
        <g
           id="g172"
           transform="translate(431.749,64.6699)">
          <path
             d="M 0,0 H -381.799"
             style="fill:none;stroke:#020202;stroke-width:3;stroke-linecap:round;stroke-linejoin:round;stroke-miterlimit:10;stroke-dasharray:none;stroke-opacity:1"
             id="path174" />
        </g>
        <g
           id="g176"
           transform="translate(451.0977,101.2373)">
          <path
             d="m 0,0 c 0,-20.354 -16.5,-36.854 -36.854,-36.854 -20.354,0 -36.854,16.5 -36.854,36.854 0,20.354 16.5,36.854 36.854,36.854 C -16.5,36.854 0,20.354 0,0 Z"
             style="fill:none;stroke:#020202;stroke-width:3;stroke-linecap:round;stroke-linejoin:round;stroke-miterlimit:10;stroke-dasharray:none;stroke-opacity:1"
             id="path178" />
        </g>
        <g
           id="g180"
           transform="translate(393.041,71.0986)">
          <path
             d="M 0,0 C 0,0 37.144,7.44 57.863,33.938"
             style="fill:none;stroke:#020202;stroke-width:3;stroke-linecap:round;stroke-linejoin:round;stroke-miterlimit:10;stroke-dasharray:none;stroke-opacity:1"
             id="path182" />
        </g>
        <g
           id="g184"
           transform="translate(406.9697,65.1025)">
          <path
             d="M 0,0 C 0,0 27.951,8.45 43.473,29.221"
             style="fill:none;stroke:#020202;stroke-width:3;stroke-linecap:round;stroke-linejoin:round;stroke-miterlimit:10;stroke-dasharray:none;stroke-opacity:1"
             id="path186" />
        </g>
        <g
           id="g188"
           transform="translate(446.834,100.2822)">
          <path
             d="M 0,0 C 0,0 -29.777,21.76 -62.322,22.732"
             style="fill:none;stroke:#020202;stroke-width:3;stroke-linecap:round;stroke-linejoin:round;stroke-miterlimit:10;stroke-dasharray:none;stroke-opacity:1"
             id="path190" />
        </g>
        <g
           id="g192"
           transform="translate(390.3301,129.2686)">
          <path
             d="M 0,0 C 0,0 37.314,1.892 60.112,-21.099"
             style="fill:none;stroke:#020202;stroke-width:3;stroke-linecap:round;stroke-linejoin:round;stroke-miterlimit:10;stroke-dasharray:none;stroke-opacity:1"
             id="path194" />
        </g>
        <g
           id="g196"
           transform="translate(404.0225,136.6445)">
          <path
             d="M 0,0 C 0,0 29.157,-5.979 41.911,-16.594"
             style="fill:none;stroke:#020202;stroke-width:3;stroke-linecap:round;stroke-linejoin:round;stroke-miterlimit:10;stroke-dasharray:none;stroke-opacity:1"
             id="path198" />
        </g>
        <g
           id="g200"
           transform="translate(427.8115,111.3154)">
          <path
             d="M 0,0 C 0,0 1.918,-15.795 -7.425,-30.284"
             style="fill:none;stroke:#020202;stroke-width:3;stroke-linecap:round;stroke-linejoin:round;stroke-miterlimit:10;stroke-dasharray:none;stroke-opacity:1"
             id="path202" />
        </g>
        <g
           id="g204"
           transform="translate(419.3311,115.0703)">
          <path
             d="M 0,0 C 0,0 -0.334,-19.768 -10.808,-39.247"
             style="fill:none;stroke:#020202;stroke-width:3;stroke-linecap:round;stroke-linejoin:round;stroke-miterlimit:10;stroke-dasharray:none;stroke-opacity:1"
             id="path206" />
        </g>
        <g
           id="g208"
           transform="translate(408.5234,118.7383)">
          <path
             d="M 0,0 C 0,0 -0.874,-26.556 -11.872,-46.766"
             style="fill:none;stroke:#020202;stroke-width:3;stroke-linecap:round;stroke-linejoin:round;stroke-miterlimit:10;stroke-dasharray:none;stroke-opacity:1"
             id="path210" />
        </g>
        <g
           id="g212"
           transform="translate(427.6895,102.3994)">
          <path
             d="M 0,0 C 0,0 6.494,-6.378 11.2,-9.508"
             style="fill:none;stroke:#020202;stroke-width:3;stroke-linecap:round;stroke-linejoin:round;stroke-miterlimit:10;stroke-dasharray:none;stroke-opacity:1"
             id="path214" />
        </g>
        <g
           id="g216"
           transform="translate(378.6348,91.7207)">
          <path
             d="M 0,0 C 0,0 14.104,5.213 28.888,16.449"
             style="fill:none;stroke:#020202;stroke-width:3;stroke-linecap:round;stroke-linejoin:round;stroke-miterlimit:10;stroke-dasharray:none;stroke-opacity:1"
             id="path218" />
        </g>
        <g
           id="g220"
           transform="translate(377.3896,101.2373)">
          <path
             d="M 0,0 C 0,0 18.738,9.755 26.976,18.813"
             style="fill:none;stroke:#020202;stroke-width:3;stroke-linecap:round;stroke-linejoin:round;stroke-miterlimit:10;stroke-dasharray:none;stroke-opacity:1"
             id="path222" />
        </g>
        <g
           id="g224"
           transform="translate(383.4229,81.0313)">
          <path
             d="M 0,0 C 0,0 14.591,6.15 20.942,11.079"
             style="fill:none;stroke:#020202;stroke-width:3;stroke-linecap:round;stroke-linejoin:round;stroke-miterlimit:10;stroke-dasharray:none;stroke-opacity:1"
             id="path226" />
        </g>
        <g
           id="g228"
           transform="translate(17.9102,234.6523)">
          <path
             d="M 0,0 C 0,0 -2.251,3.987 -1.21,5.937 -0.169,7.885 3.711,2.112 6.197,1.403 8.683,0.694 25.104,4.732 29.66,-0.617 34.216,-5.967 31.625,-12.48 26.979,-14.354 22.334,-16.229 7.01,-7.59 3.979,-9.06 0.948,-10.529 -2.602,-12.863 -3.213,-10.224 -3.825,-7.584 0,0 0,0 Z"
             style="fill:none;stroke:#020202;stroke-width:3;stroke-linecap:round;stroke-linejoin:round;stroke-miterlimit:10;stroke-dasharray:none;stroke-opacity:1"
             id="path230" />
        </g>
        <g
           id="g232"
           transform="translate(36.9917,236.8496)">
          <path
             d="M 0,0 C 0,0 -5.517,-8.591 -1.342,-15.07"
             style="fill:none;stroke:#020202;stroke-width:3;stroke-linecap:round;stroke-linejoin:round;stroke-miterlimit:10;stroke-dasharray:none;stroke-opacity:1"
             id="path234" />
        </g>
        <g
           id="g236"
           transform="translate(45.4922,230.5498)">
          <path
             d="m 0,0 c 0,-0.322 -0.261,-0.584 -0.583,-0.584 -0.322,0 -0.584,0.262 -0.584,0.584 0,0.322 0.262,0.583 0.584,0.583 C -0.261,0.583 0,0.322 0,0 Z"
             style="fill:none;stroke:#020202;stroke-width:3;stroke-linecap:round;stroke-linejoin:round;stroke-miterlimit:10;stroke-dasharray:none;stroke-opacity:1"
             id="path238" />
        </g>
        <g
           id="g240"
           transform="translate(246.4409,371.6089)">
          <path
             d="m 0,0 c 0,0 4.197,1.832 6.029,0.597 1.832,-1.235 -4.307,-4.505 -5.266,-6.905 -0.959,-2.4 1.378,-19.148 -4.409,-23.134 -5.787,-3.985 -12.002,-0.741 -13.392,4.071 -1.388,4.813 8.771,19.173 7.619,22.339 -1.152,3.165 -3.111,6.935 -0.422,7.274 C -7.153,4.581 0,0 0,0 Z"
             style="fill:none;stroke:#020202;stroke-width:3;stroke-linecap:round;stroke-linejoin:round;stroke-miterlimit:10;stroke-dasharray:none;stroke-opacity:1"
             id="path242" />
        </g>
        <g
           id="g244"
           transform="translate(246.6753,352.4028)">
          <path
             d="M 0,0 C 0,0 -7.981,6.366 -14.854,2.875"
             style="fill:none;stroke:#020202;stroke-width:3;stroke-linecap:round;stroke-linejoin:round;stroke-miterlimit:10;stroke-dasharray:none;stroke-opacity:1"
             id="path246" />
        </g>
        <g
           id="g248"
           transform="translate(239.54,344.5908)">
          <path
             d="m 0,0 c -0.321,0.033 -0.554,0.319 -0.521,0.64 0.033,0.32 0.319,0.553 0.64,0.52 C 0.439,1.127 0.673,0.841 0.64,0.521 0.607,0.2 0.32,-0.033 0,0 Z"
             style="fill:none;stroke:#020202;stroke-width:3;stroke-linecap:round;stroke-linejoin:round;stroke-miterlimit:10;stroke-dasharray:none;stroke-opacity:1"
             id="path250" />
        </g>
        <g
           id="g252"
           transform="translate(403.3086,457.8594)">
          <path
             d="M 0,0 C 0,0 -3.178,3.296 -2.658,5.444 -2.139,7.591 3.064,2.974 5.648,2.911 8.232,2.848 23.119,10.869 28.87,6.831 34.621,2.793 33.743,-4.162 29.715,-7.14 25.687,-10.117 8.688,-5.592 6.122,-7.774 3.555,-9.956 0.703,-13.105 -0.55,-10.702 -1.804,-8.3 0,0 0,0 Z"
             style="fill:none;stroke:#020202;stroke-width:3;stroke-linecap:round;stroke-linejoin:round;stroke-miterlimit:10;stroke-dasharray:none;stroke-opacity:1"
             id="path254" />
        </g>
        <g
           id="g256"
           transform="translate(421.2324,464.7651)">
          <path
             d="M 0,0 C 0,0 -3.189,-9.699 2.476,-14.926"
             style="fill:none;stroke:#020202;stroke-width:3;stroke-linecap:round;stroke-linejoin:round;stroke-miterlimit:10;stroke-dasharray:none;stroke-opacity:1"
             id="path258" />
        </g>
        <g
           id="g260"
           transform="translate(431.04,460.7954)">
          <path
             d="m 0,0 c 0.08,-0.312 -0.107,-0.63 -0.419,-0.711 -0.311,-0.081 -0.63,0.107 -0.711,0.419 -0.081,0.312 0.107,0.63 0.419,0.71 C -0.399,0.5 -0.081,0.312 0,0 Z"
             style="fill:none;stroke:#020202;stroke-width:3;stroke-linecap:round;stroke-linejoin:round;stroke-miterlimit:10;stroke-dasharray:none;stroke-opacity:1"
             id="path262" />
        </g>
        <g
           id="g264"
           transform="translate(470.9824,169.9766)">
          <path
             d="m 0,0 c 0,0 4.145,1.946 4.425,4.139 0.28,2.191 -6.227,-0.268 -8.664,0.594 -2.437,0.863 -13.485,13.664 -20.297,11.943 -6.813,-1.722 -8.473,-8.533 -5.772,-12.752 2.703,-4.218 20.198,-6.051 21.818,-9.005 1.619,-2.953 3.161,-6.912 5.188,-5.114 C -1.273,-8.397 0,0 0,0 Z"
             style="fill:none;stroke:#020202;stroke-width:3;stroke-linecap:round;stroke-linejoin:round;stroke-miterlimit:10;stroke-dasharray:none;stroke-opacity:1"
             id="path266" />
        </g>
        <g
           id="g268"
           transform="translate(456.7002,182.8193)">
          <path
             d="M 0,0 C 0,0 -0.479,-10.199 -7.635,-13.063"
             style="fill:none;stroke:#020202;stroke-width:3;stroke-linecap:round;stroke-linejoin:round;stroke-miterlimit:10;stroke-dasharray:none;stroke-opacity:1"
             id="path270" />
        </g>
        <g
           id="g272"
           transform="translate(446.1211,182.6074)">
          <path
             d="M 0,0 C -0.187,-0.263 -0.125,-0.627 0.138,-0.813 0.4,-1 0.765,-0.938 0.951,-0.676 1.138,-0.413 1.076,-0.049 0.813,0.138 0.551,0.324 0.187,0.263 0,0 Z"
             style="fill:none;stroke:#020202;stroke-width:3;stroke-linecap:round;stroke-linejoin:round;stroke-miterlimit:10;stroke-dasharray:none;stroke-opacity:1"
             id="path274" />
        </g>
        <g
           id="g276"
           transform="translate(60.0396,468.9741)">
          <path
             d="m 0,0 c 0,0 0.24,4.573 -1.559,5.854 -1.799,1.282 -2.705,-5.615 -4.615,-7.356 -1.91,-1.741 -18.411,-5.437 -20.11,-12.255 -1.698,-6.819 3.522,-11.498 8.516,-11.107 4.994,0.39 14.87,14.947 18.238,14.981 3.369,0.033 7.586,-0.477 6.959,2.159 C 6.801,-5.087 0,0 0,0 Z"
             style="fill:none;stroke:#020202;stroke-width:3;stroke-linecap:round;stroke-linejoin:round;stroke-miterlimit:10;stroke-dasharray:none;stroke-opacity:1"
             id="path278" />
        </g>
        <g
           id="g280"
           transform="translate(41.9751,462.4463)">
          <path
             d="M 0,0 C 0,0 8.765,-5.236 7.911,-12.897"
             style="fill:none;stroke:#020202;stroke-width:3;stroke-linecap:round;stroke-linejoin:round;stroke-miterlimit:10;stroke-dasharray:none;stroke-opacity:1"
             id="path282" />
        </g>
        <g
           id="g284"
           transform="translate(37.168,453.021)">
          <path
             d="M 0,0 C 0.144,-0.289 0.494,-0.406 0.782,-0.263 1.071,-0.119 1.188,0.231 1.045,0.52 0.901,0.808 0.551,0.925 0.263,0.782 -0.026,0.639 -0.143,0.289 0,0 Z"
             style="fill:none;stroke:#020202;stroke-width:3;stroke-linecap:round;stroke-linejoin:round;stroke-miterlimit:10;stroke-dasharray:none;stroke-opacity:1"
             id="path286" />
        </g>
        <g
           id="g288"
           transform="translate(144.1411,328.2344)">
          <path
             d="m 0,0 c 0,-3.077 -2.494,-5.571 -5.57,-5.571 -3.077,0 -5.571,2.494 -5.571,5.571 0,3.077 2.494,5.571 5.571,5.571 C -2.494,5.571 0,3.077 0,0 Z"
             style="fill:none;stroke:#020202;stroke-width:3;stroke-linecap:round;stroke-linejoin:round;stroke-miterlimit:10;stroke-dasharray:none;stroke-opacity:1"
             id="path290" />
        </g>
        <g
           id="g292"
           transform="translate(39.6587,387.7036)">
          <path
             d="m 0,0 c 0,-3.076 -2.494,-5.57 -5.571,-5.57 -3.076,0 -5.571,2.494 -5.571,5.57 0,3.077 2.495,5.571 5.571,5.571 C -2.494,5.571 0,3.077 0,0 Z"
             style="fill:none;stroke:#020202;stroke-width:3;stroke-linecap:round;stroke-linejoin:round;stroke-miterlimit:10;stroke-dasharray:none;stroke-opacity:1"
             id="path294" />
        </g>
        <g
           id="g296"
           transform="translate(241.3428,438.4146)">
          <path
             d="m 0,0 c 0,-3.077 -2.494,-5.571 -5.57,-5.571 -3.077,0 -5.571,2.494 -5.571,5.571 0,3.077 2.494,5.571 5.571,5.571 C -2.494,5.571 0,3.077 0,0 Z"
             style="fill:none;stroke:#020202;stroke-width:3;stroke-linecap:round;stroke-linejoin:round;stroke-miterlimit:10;stroke-dasharray:none;stroke-opacity:1"
             id="path298" />
        </g>
        <g
           id="g300"
           transform="translate(468.5703,258.6562)">
          <path
             d="m 0,0 c 0,-3.077 -2.494,-5.571 -5.57,-5.571 -3.076,0 -5.571,2.494 -5.571,5.571 0,3.076 2.495,5.57 5.571,5.57 C -2.494,5.57 0,3.076 0,0 Z"
             style="fill:none;stroke:#020202;stroke-width:3;stroke-linecap:round;stroke-linejoin:round;stroke-miterlimit:10;stroke-dasharray:none;stroke-opacity:1"
             id="path302" />
        </g>
        <g
           id="g304"
           transform="translate(406.1641,37.1416)">
          <path
             d="m 0,0 c 0,-3.077 -2.494,-5.571 -5.57,-5.571 -3.077,0 -5.572,2.494 -5.572,5.571 0,3.076 2.495,5.57 5.572,5.57 C -2.494,5.57 0,3.076 0,0 Z"
             style="fill:none;stroke:#020202;stroke-width:3;stroke-linecap:round;stroke-linejoin:round;stroke-miterlimit:10;stroke-dasharray:none;stroke-opacity:1"
             id="path306" />
        </g>
        <g
           id="g308"
           transform="translate(50.4795,123.0146)">
          <path
             d="m 0,0 c 0,-3.076 -2.494,-5.57 -5.57,-5.57 -3.077,0 -5.571,2.494 -5.571,5.57 0,3.077 2.494,5.57 5.571,5.57 C -2.494,5.57 0,3.077 0,0 Z"
             style="fill:none;stroke:#020202;stroke-width:3;stroke-linecap:round;stroke-linejoin:round;stroke-miterlimit:10;stroke-dasharray:none;stroke-opacity:1"
             id="path310" />
        </g>
        <g
           id="g312"
           transform="translate(393.7002,173.0703)">
          <path
             d="m 0,0 c 0,-3.076 -2.493,-5.57 -5.57,-5.57 -3.076,0 -5.571,2.494 -5.571,5.57 0,3.077 2.495,5.571 5.571,5.571 C -2.493,5.571 0,3.077 0,0 Z"
             style="fill:none;stroke:#020202;stroke-width:3;stroke-linecap:round;stroke-linejoin:round;stroke-miterlimit:10;stroke-dasharray:none;stroke-opacity:1"
             id="path314" />
        </g>
        <g
           id="g316"
           transform="translate(379.0771,416.6113)">
          <path
             d="m 0,0 c 0,-3.077 -2.494,-5.571 -5.57,-5.571 -3.077,0 -5.572,2.494 -5.572,5.571 0,3.077 2.495,5.57 5.572,5.57 C -2.494,5.57 0,3.077 0,0 Z"
             style="fill:none;stroke:#020202;stroke-width:3;stroke-linecap:round;stroke-linejoin:round;stroke-miterlimit:10;stroke-dasharray:none;stroke-opacity:1"
             id="path318" />
        </g>
        <g
           id="g320"
           transform="translate(222.1196,31.5703)">
          <path
             d="m 0,0 c 0,-3.076 -2.494,-5.57 -5.571,-5.57 -3.076,0 -5.57,2.494 -5.57,5.57 0,3.077 2.494,5.571 5.57,5.571 C -2.494,5.571 0,3.077 0,0 Z"
             style="fill:none;stroke:#020202;stroke-width:3;stroke-linecap:round;stroke-linejoin:round;stroke-miterlimit:10;stroke-dasharray:none;stroke-opacity:1"
             id="path322" />
        </g>
      </g>
    </g>
  </g>
</svg>
