<svg
      version="1.0"
      xmlns="http://www.w3.org/2000/svg"
      width="400.000000pt"
      height="600.000000pt"
      viewBox="0 0 200.000000 300.000000"
      preserveAspectRatio="xMidYMid meet">

      <g transform="translate(0.000000,300.000000) scale(0.100000,-0.100000)"
        fill="#000000"
        stroke="none">
        <path id="node1" d="M773 2818 c-30 -14 -29 -20 7 -40 23 -13 30 -24 30 -48 0 -45 -15
-67 -68 -101 -48 -30 -68 -37 -56 -18 17 29 -151 -49 -189 -87 -35 -35 -51
-87 -44 -144 5 -41 3 -47 -11 -46 -14 1 -17 -7 -16 -41 1 -50 39 -106 90 -130
40 -20 42 -26 12 -41 -50 -25 -66 -20 -100 33 -18 27 -44 55 -57 61 -92 46
-199 -156 -147 -280 16 -38 61 -73 104 -82 29 -6 30 -7 31 -73 1 -36 5 -91 9
-121 10 -71 6 -88 -21 -92 -23 -3 -24 -11 -11 -74 7 -39 115 -147 169 -169 21
-9 49 -14 62 -10 16 4 22 2 18 -5 -3 -5 3 -24 15 -40 17 -24 27 -29 43 -24 20
6 20 5 8 -10 -11 -13 -27 -17 -65 -15 -72 4 -71 -15 2 -56 1 -1 -4 -15 -13
-31 -27 -53 -14 -112 20 -84 11 9 16 0 25 -47 7 -32 34 -95 61 -144 27 -48 49
-91 49 -97 0 -5 -18 -8 -43 -5 -37 5 -45 2 -59 -18 -34 -54 -31 -122 8 -164
20 -22 32 -25 76 -24 29 0 69 -4 88 -10 48 -15 144 -3 176 21 13 11 35 41 49
66 l24 47 1 -37 c0 -53 26 -75 95 -83 74 -10 125 6 169 51 57 59 76 127 51
186 -6 15 -1 15 47 -3 65 -24 128 -51 128 -55 0 -2 -9 -19 -21 -38 -23 -40
-20 -83 10 -110 25 -23 105 -34 180 -27 51 6 68 12 83 31 56 70 -61 290 -177
335 -47 17 -63 40 -39 53 8 5 16 15 17 23 4 25 17 38 32 32 18 -6 21 22 4 33
-8 4 -2 12 15 21 22 12 26 20 26 57 0 27 -6 48 -15 56 -23 19 -18 43 20 108
47 78 63 154 48 227 -23 107 -57 153 -186 248 -89 66 -97 76 -104 126 -10 74
57 141 128 127 110 -21 114 -20 142 14 39 45 38 111 -1 150 -74 73 -213 60
-317 -31 -30 -26 -35 -28 -35 -13 0 11 -9 38 -20 61 -25 56 -70 83 -136 83
-62 0 -92 -24 -119 -93 -15 -39 -22 -47 -44 -47 -46 0 -172 30 -210 50 -71 38
-71 36 -19 83 54 48 63 76 31 92 -22 11 -22 12 12 28 91 43 161 148 136 203
-7 16 -17 24 -26 20 -11 -4 -13 4 -9 42 6 53 -16 98 -59 127 -33 21 -87 27
-114 13z m98 -31 c61 -41 74 -94 39 -162 -24 -47 -18 -56 15 -25 32 30 50 16
40 -31 -9 -41 -83 -115 -153 -155 -60 -33 -67 -48 -18 -39 62 12 54 -13 -27
-87 -49 -45 -80 -81 -87 -104 -8 -25 -16 -34 -27 -30 -8 3 -19 6 -24 6 -6 0
-19 20 -30 45 -22 49 -27 134 -11 176 17 43 71 97 147 149 71 48 135 111 135
132 0 6 -15 -6 -34 -28 -18 -21 -60 -57 -92 -79 -149 -101 -179 -143 -179
-255 0 -50 5 -74 23 -104 30 -51 17 -64 -34 -35 -74 42 -114 92 -114 140 0 22
2 21 35 -11 40 -39 43 -35 14 22 -16 32 -20 54 -17 98 5 75 25 103 100 141
l62 31 -18 -27 c-24 -37 -14 -42 26 -13 18 14 61 41 94 62 60 35 94 79 94 120
0 21 -21 66 -32 66 -4 0 -8 5 -8 10 0 18 46 11 81 -13z m404 -527 c29 -24 15
-27 -26 -7 -37 18 -45 19 -67 6 -39 -22 -47 -60 -28 -137 23 -96 24 -132 5
-144 -21 -14 -65 8 -93 45 l-20 27 28 88 c34 104 57 140 94 144 35 4 89 -7
107 -22z m-34 -14 c19 -8 45 -26 59 -41 22 -24 25 -35 25 -103 0 -109 -40
-183 -111 -206 -18 -5 -22 -2 -27 21 -3 15 -1 30 4 32 27 9 61 87 65 145 l4
61 -15 -58 c-8 -31 -22 -72 -32 -90 l-17 -32 -7 55 c-3 30 -11 73 -18 95 -18
64 -14 102 11 119 27 19 19 19 59 2z m-463 -35 c31 -21 113 -51 142 -51 40 0
19 -18 -32 -28 -37 -7 -55 -7 -59 0 -5 7 -23 7 -58 -2 -57 -14 -81 -4 -81 33
0 18 4 19 46 13 l45 -6 -21 30 c-25 35 -19 38 18 11z m-48 -1 c0 -5 -4 -10
-10 -10 -5 0 -10 5 -10 10 0 6 5 10 10 10 6 0 10 -4 10 -10z m925 -4 c39 -17
57 -62 43 -111 -14 -52 -29 -59 -90 -44 -29 7 -63 12 -75 11 -18 -1 -23 4 -23
21 0 12 -12 42 -25 66 -14 24 -24 45 -23 46 31 25 144 31 193 11z m-1235 -76
c22 -38 40 -71 40 -73 0 -3 -18 -32 -41 -66 -33 -50 -44 -59 -55 -50 -19 16
-36 85 -29 117 16 74 2 134 -27 116 -4 -3 -8 0 -8 6 0 14 39 28 62 22 10 -2
36 -35 58 -72z m1045 14 c9 -14 19 -40 22 -57 4 -27 0 -36 -27 -55 l-32 -24
-22 21 c-12 12 -27 21 -33 21 -32 0 -21 52 20 98 27 29 51 28 72 -4z m-1140
-86 c0 -81 3 -99 20 -118 14 -16 16 -22 5 -18 -8 2 -25 19 -37 38 -14 19 -23
26 -23 17 0 -21 48 -77 66 -77 8 0 14 -7 14 -15 0 -34 -82 -5 -115 42 -47 68
-7 243 53 231 14 -3 17 -18 17 -100z m374 56 c37 -47 24 -144 -23 -176 -6 -4
-25 -8 -42 -8 -62 0 -98 77 -69 146 19 48 40 64 81 64 23 0 39 -8 53 -26z
m349 15 c-2 -6 -64 -36 -138 -65 -189 -75 -172 -72 -168 -28 3 41 -2 38 163
84 80 21 149 26 143 9z m-533 -41 c18 -8 25 -19 25 -40 0 -34 -9 -35 -43 -4
-17 15 -24 31 -21 40 7 19 7 19 39 4z m519 -13 c-17 -42 34 -108 95 -125 38
-10 40 -13 52 -68 14 -68 7 -193 -13 -242 -36 -84 -180 -220 -235 -220 -26 0
-114 30 -133 45 -8 7 -26 16 -40 20 -22 6 -21 4 6 -13 43 -28 47 -37 30 -69
-26 -51 -49 -64 -95 -57 -58 9 -52 38 12 58 12 4 17 16 17 41 0 46 -19 53 -65
25 -24 -15 -44 -20 -61 -16 -23 6 -24 8 -9 29 23 32 18 86 -16 194 -21 66 -44
114 -72 151 -39 52 -43 54 -79 49 -36 -5 -38 -4 -32 16 10 34 56 116 72 130
12 10 24 2 67 -46 41 -45 61 -59 90 -64 32 -5 35 -8 22 -20 -13 -13 -20 -11
-56 12 -43 29 -131 46 -131 26 0 -6 10 -11 23 -11 23 0 98 -56 125 -93 13 -16
17 -14 64 28 28 25 82 61 122 81 l71 35 -54 -6 c-30 -3 -68 -13 -85 -22 -29
-15 -30 -15 -17 1 19 22 71 49 201 102 115 48 132 52 124 29z m357 -54 c20
-16 23 -27 24 -95 0 -77 0 -78 -41 -122 -42 -45 -54 -47 -54 -9 0 13 -7 28
-15 35 -20 16 -20 93 -1 110 8 6 23 31 32 56 9 24 20 44 24 44 4 0 18 -8 31
-19z m-653 -102 c-21 -10 -54 -36 -74 -55 l-36 -36 -39 38 c-47 46 -44 56 6
19 l36 -28 27 25 c32 30 81 57 102 57 8 0 -2 -9 -22 -20z m534 -69 c4 -46 1
-48 -36 -19 -32 25 -33 37 -3 49 34 13 35 13 39 -30z m-773 -49 c28 -27 51
-57 51 -65 0 -20 -10 -20 -24 -1 -6 9 -27 18 -47 21 -67 11 -94 -48 -68 -148
13 -49 70 -82 135 -76 24 2 46 -1 48 -7 1 -5 -12 -27 -30 -48 -33 -36 -41 -57
-27 -71 4 -3 12 -22 19 -41 11 -32 10 -35 -8 -35 -27 0 -58 18 -58 34 0 9 -7
12 -21 9 -18 -5 -20 -3 -14 17 6 20 4 22 -13 18 -28 -8 -95 66 -87 93 4 11 2
19 -4 19 -6 0 -11 7 -11 15 0 8 9 15 19 15 13 0 21 -9 26 -29 9 -42 85 -121
116 -120 22 0 22 1 4 8 -48 20 -139 146 -115 161 6 3 6 30 0 70 -30 204 8 259
109 161z m989 -8 l47 -37 -43 -44 -43 -43 -50 36 c-27 20 -49 39 -49 41 0 9
73 84 81 84 5 0 31 -17 57 -37z m-215 4 c20 0 27 -5 27 -19 0 -26 -26 -75 -47
-88 -15 -9 -14 -10 9 -6 25 6 26 5 18 -23 -14 -50 -53 -93 -105 -117 l-50 -23
33 -13 c17 -7 32 -16 32 -20 0 -16 -47 -38 -84 -38 -36 0 -38 -1 -22 -13 18
-13 18 -14 1 -21 -10 -4 -23 -2 -29 4 -16 16 -30 12 -16 -5 7 -9 11 -17 9 -18
-2 -2 -30 -18 -62 -35 -55 -31 -59 -32 -87 -17 -53 27 -85 20 -126 -30 -20
-25 -43 -45 -50 -45 -8 0 -14 -7 -14 -16 0 -21 -30 -14 -44 11 -6 11 -12 22
-13 24 -2 2 -9 -1 -17 -8 -11 -9 -15 -7 -19 8 -6 25 35 41 103 41 52 0 72 15
91 68 12 36 19 37 83 20 62 -16 111 8 202 97 61 60 73 79 92 138 12 37 22 88
22 113 0 40 2 45 18 38 9 -4 29 -7 45 -7z m73 -78 c10 -11 52 -44 94 -73 112
-79 172 -155 110 -139 -26 7 -93 -60 -111 -112 -7 -19 -15 -35 -19 -35 -3 0
-14 13 -25 29 -23 36 -83 71 -118 71 -40 0 -57 -34 -57 -112 0 -65 -1 -68 -24
-68 -14 0 -37 -5 -51 -10 -56 -21 -101 -15 -134 17 -37 38 -32 46 63 98 68 37
146 99 146 116 0 5 -9 9 -19 9 -29 0 -34 17 -8 24 59 14 106 77 112 149 1 23
3 45 4 50 2 13 18 7 37 -14z m-846 1 c0 -5 -6 -10 -14 -10 -25 0 -46 -42 -46
-90 0 -33 -3 -41 -10 -30 -16 24 -12 107 6 124 17 18 64 22 64 6z m1115 -31
c29 -27 51 -59 65 -96 11 -31 19 -57 18 -58 -2 -1 -25 -5 -51 -8 -43 -4 -49
-2 -57 17 -9 23 -50 64 -92 91 -16 9 -28 20 -28 24 0 16 64 71 81 71 11 0 39
-18 64 -41z m-1085 4 c-46 -15 -60 -26 -48 -40 9 -11 9 -16 -2 -23 -11 -7 -12
-15 -4 -37 9 -25 15 -28 52 -27 34 1 40 -2 31 -13 -24 -28 -84 -8 -100 34 -11
29 4 99 24 106 6 3 23 5 37 5 14 0 18 -2 10 -5z m1168 -215 c2 -20 -2 -55 -8
-78 -9 -34 -14 -39 -26 -30 -8 7 -14 18 -14 25 0 6 -11 33 -25 58 -22 43 -23
47 -7 57 9 5 31 9 47 7 27 -2 30 -6 33 -39z m-120 -4 c51 -35 72 -129 48 -208
-14 -47 -14 -50 4 -63 25 -18 28 -88 4 -97 -40 -15 -124 7 -149 40 -22 29 -18
33 20 27 23 -4 35 -2 35 6 0 6 -16 11 -38 11 -57 0 -87 35 -78 92 9 58 61 163
93 187 31 25 33 25 61 5z m-858 -29 c0 -17 -6 -25 -17 -25 -9 0 -29 -12 -44
-26 l-27 -26 -20 22 c-14 15 -27 20 -41 15 -17 -5 -21 -2 -21 14 0 27 12 32
47 19 26 -10 35 -8 64 10 44 28 59 28 59 -3z m622 -32 c50 -42 67 -66 68 -93
0 -41 -27 -50 -104 -37 l-66 11 0 47 c0 100 36 126 102 72z m-709 -56 c10 -4
15 -11 12 -17 -19 -30 -84 13 -70 47 6 17 8 17 23 -2 9 -12 25 -24 35 -28z
m237 -27 c0 -28 -33 -85 -77 -131 -48 -51 -48 -52 -48 -118 1 -48 7 -77 23
-108 13 -24 18 -43 12 -43 -30 0 -89 51 -90 77 0 6 -5 15 -12 19 -11 7 -9 -10
7 -48 12 -30 -9 -20 -34 17 -18 26 -22 44 -19 80 2 25 0 45 -3 45 -4 0 -16
-15 -28 -32 l-21 -33 0 30 c0 19 11 44 31 68 l30 37 -38 1 -38 2 43 6 c23 4
48 13 54 19 7 7 23 12 37 12 31 0 91 45 91 69 0 9 5 22 12 29 15 15 68 16 68
2z m81 -9 c21 11 22 10 16 -25 -3 -20 -20 -56 -37 -80 -27 -37 -57 -116 -44
-116 2 0 34 31 72 70 56 58 72 69 96 66 35 -4 46 -20 46 -68 0 -27 4 -38 15
-38 21 0 48 57 43 91 -10 65 78 28 122 -51 24 -44 85 -110 101 -110 5 0 9 -6
9 -13 0 -26 -108 -107 -142 -107 -17 0 -44 41 -59 90 -7 24 -7 24 -8 -5 -1
-35 32 -111 61 -142 l20 -22 -42 -11 c-23 -6 -58 -10 -78 -8 -35 3 -37 5 -43
45 -3 23 -13 51 -23 62 -10 11 -22 35 -26 53 -6 26 -9 29 -15 16 -4 -11 1 -33
14 -59 20 -38 20 -41 4 -34 -51 20 -89 17 -121 -10 -37 -31 -43 -52 -9 -32 28
18 109 22 136 7 28 -14 31 -76 4 -65 -65 26 -115 21 -148 -15 -20 -22 -17 -23
39 -11 29 7 47 6 72 -7 19 -8 34 -19 34 -23 0 -19 -25 -59 -39 -63 -34 -11
-110 -9 -138 3 -28 12 -29 14 -25 65 4 45 -1 62 -31 122 -45 90 -59 134 -59
188 0 58 21 94 76 134 25 18 46 35 46 38 0 3 -4 2 -10 -1 -13 -8 -13 4 1 43 9
27 14 30 30 22 13 -8 26 -7 40 1z m59 -63 c0 -13 -92 -109 -98 -103 -3 3 9 22
26 44 17 21 34 51 38 65 5 21 9 24 20 15 8 -6 14 -16 14 -21z m400 2 c0 -5 -4
-10 -10 -10 -5 0 -10 5 -10 10 0 6 5 10 10 10 6 0 10 -4 10 -10z m-106 -22 c3
-13 6 -39 5 -58 l0 -35 -16 30 c-8 17 -27 42 -41 58 l-26 27 36 0 c29 0 37 -4
42 -22z m53 11 c29 -11 73 -47 73 -59 0 -4 -17 -10 -37 -13 -21 -4 -45 -16
-56 -29 l-18 -23 5 35 c3 19 2 50 -3 68 -10 35 -6 37 36 21z m-217 -43 c0 -19
-4 -38 -10 -41 -5 -3 -10 3 -10 15 0 12 -5 30 -10 41 -9 16 -7 19 10 19 16 0
20 -6 20 -34z m256 -61 c-4 -11 0 -15 12 -13 24 4 30 -49 6 -59 -26 -10 -48
10 -50 45 -1 22 2 29 12 25 8 -3 14 0 14 6 0 6 3 11 6 11 3 0 3 -7 0 -15z m84
-45 c45 -89 40 -103 -29 -79 -36 13 -36 12 -15 44 11 17 14 35 10 60 -4 19 -5
35 -2 35 3 0 19 -27 36 -60z m85 -17 c38 -18 43 -28 20 -37 -8 -3 -15 -17 -15
-31 0 -52 -28 -19 -54 63 -9 27 2 28 49 5z m-63 -97 c23 5 30 1 40 -20 10 -24
8 -29 -20 -57 -50 -49 -41 -62 21 -34 28 14 61 25 72 25 38 0 147 -133 130
-160 -3 -5 -43 -9 -88 -9 -72 1 -87 4 -124 28 -23 16 -77 40 -120 56 -43 15
-93 38 -111 52 l-34 25 40 18 c37 17 71 54 85 93 6 16 9 16 44 -3 25 -13 47
-18 65 -14z m-148 -27 c-34 -38 -104 -64 -104 -39 0 6 8 10 18 10 9 0 35 14
56 30 43 33 60 32 30 -1z m-598 -41 c58 -23 84 -62 84 -126 0 -48 -8 -57 -52
-58 -34 -1 -36 1 -40 32 -4 33 6 47 14 22 4 -10 11 -9 34 2 l29 15 -47 3 c-35
2 -51 8 -58 23 -14 25 -5 39 25 39 34 0 42 20 8 22 -15 1 -36 2 -46 2 -11 1
-25 10 -33 21 -31 41 -15 42 82 3z m239 2 c-28 -12 -47 -12 -40 0 3 6 18 10
33 9 24 0 25 -1 7 -9z m585 -9 c0 -4 -16 -15 -35 -24 -41 -20 -46 -7 -9 22 24
19 44 20 44 2z m-860 -31 c0 -5 -4 -10 -10 -10 -5 0 -10 5 -10 10 0 6 5 10 10
10 6 0 10 -4 10 -10z m582 -41 c21 -11 20 -12 -13 -30 -37 -20 -37 -21 2 -23
18 -1 25 2 22 11 -10 25 13 13 30 -16 24 -40 22 -55 -14 -118 -38 -66 -78 -93
-139 -93 -56 0 -72 10 -72 44 0 43 28 76 62 73 16 -2 36 -9 44 -16 19 -16 88
-33 80 -20 -3 5 -12 9 -21 9 -29 0 -83 41 -89 68 -4 15 -18 42 -31 60 l-24 32
33 1 c18 0 49 7 68 14 19 7 36 14 38 14 2 1 13 -4 24 -10z m-257 -21 c14 -6
25 -15 25 -20 0 -11 -7 -10 -33 4 -12 6 -35 15 -52 19 l-30 7 32 1 c18 1 44
-4 58 -11z m105 -41 c38 -42 33 -65 -12 -48 -18 7 -33 6 -51 -4 l-25 -13 15
52 c18 61 23 70 32 59 3 -4 22 -25 41 -46z m-432 -43 c17 -5 20 -10 11 -20 -6
-7 -16 -11 -23 -8 -7 3 -20 -4 -30 -15 -15 -16 -17 -31 -13 -68 l5 -48 -19 24
c-23 28 -25 88 -3 119 16 23 32 26 72 16z m122 -24 c12 -8 11 -10 -6 -10 -36
0 -57 -33 -52 -84 4 -57 -16 -63 -38 -11 -18 44 -18 65 2 93 16 24 66 30 94
12z m300 0 c12 -8 12 -10 -2 -15 -24 -9 -51 -71 -42 -98 6 -19 5 -20 -10 -8
-21 17 -21 79 0 109 16 24 31 27 54 12z m534 4 c14 -5 14 -8 1 -27 -17 -24
-20 -83 -5 -92 6 -4 8 -11 5 -16 -10 -16 -44 -10 -66 12 -17 17 -20 29 -16 56
10 57 41 82 81 67z m96 -4 c0 -5 -11 -10 -25 -10 -14 0 -25 5 -25 10 0 6 11
10 25 10 14 0 25 -4 25 -10z m-192 -31 c-6 -17 -8 -46 -5 -65 7 -39 -2 -43
-28 -14 -34 38 -17 110 26 110 16 0 17 -4 7 -31z m-685 15 c11 -4 7 -12 -16
-35 -25 -26 -29 -35 -24 -69 6 -44 2 -47 -31 -24 -16 11 -22 25 -22 52 0 45 8
58 40 71 31 12 35 12 53 5z m-180 -47 c3 -24 9 -51 13 -60 9 -24 -22 -22 -36
2 -11 22 -14 84 -3 94 14 15 20 5 26 -36z m292 -6 c-39 -78 -103 -108 -126
-58 -18 40 3 74 58 91 26 8 58 15 71 15 l22 1 -25 -49z m779 23 c15 -58 -44
-106 -84 -69 -22 20 -26 65 -9 82 7 7 29 11 50 10 30 -1 39 -6 43 -23z"></path>
        <path id="node2" d="M612 2123 c-20 -8 -42 -59 -42 -96 0 -79 81 -109 120 -44 48 78 -3
170 -78 140z m49 -57 c-17 -20 -34 -10 -28 15 3 11 1 19 -4 19 -14 0 -11 -36
4 -48 15 -13 29 -5 45 23 8 15 12 16 12 5 1 -8 3 -22 5 -31 1 -8 -3 -30 -11
-47 -14 -35 -55 -52 -79 -32 -23 19 -29 74 -11 108 20 39 36 44 60 21 16 -15
17 -21 7 -33z"></path>
        <path id="node3" d="M892 1920 c-76 -47 -157 -123 -169 -159 -27 -83 -6 -178 51 -230 21
-20 36 -25 80 -24 57 0 133 24 178 55 59 41 84 181 50 283 -29 86 -115 120
-190 75z m138 -35 c38 -20 53 -69 48 -158 -5 -97 -27 -140 -86 -167 -25 -12
-62 -24 -81 -26 -31 -4 -29 -2 18 15 29 11 59 25 66 31 23 19 45 77 45 117 0
114 -196 141 -248 34 -32 -67 -12 -191 31 -191 9 0 9 2 0 8 -33 21 -44 123
-18 171 25 49 120 67 176 34 32 -19 52 -63 38 -84 -7 -11 -9 -10 -9 5 0 10
-16 34 -35 53 -32 32 -40 35 -73 30 -43 -7 -92 -55 -92 -91 0 -41 21 -86 48
-100 l26 -13 -25 -8 c-23 -8 -23 -8 -4 -16 15 -6 9 -8 -19 -6 -56 3 -98 56
-104 131 -8 93 2 119 61 164 107 80 174 99 237 67z m-73 -160 c29 -20 48 -78
34 -104 -29 -53 -104 -68 -141 -28 -18 18 -21 31 -17 67 8 70 70 103 124 65z"></path>
        <path id="node4" d="M867 1714 c-4 -4 -4 -18 -1 -30 5 -18 2 -24 -10 -24 -24 0 -19 -27 9
-55 30 -30 54 -31 89 -4 32 25 36 77 8 102 -18 17 -82 23 -95 11z"></path>
        <path id="node5" d="M430 1540 c36 -32 89 -47 117 -34 13 5 2 9 -35 15 -33 4 -62 15 -76
28 -12 12 -26 21 -32 21 -5 -1 7 -14 26 -30z"></path>
        <path id="node6" d="M1518 1433 c-35 -40 -66 -127 -49 -137 5 -4 12 8 16 26 8 38 45 108
57 108 12 0 10 -7 -17 -50 -29 -46 -19 -54 12 -11 43 57 25 114 -19 64z"></path>
        <path id="node7" d="M1270 1407 c0 -19 28 -55 53 -68 19 -10 18 -8 -5 18 -27 28 -39 61
-18 48 6 -3 10 -1 10 4 0 6 -9 11 -20 11 -11 0 -20 -6 -20 -13z"></path>






      </g>
      <g transform="translate(0.000000,300.000000) scale(0.100000,-0.100000)" fill="#FFFFFF" stroke="none">

        <path id="node15" d="M790 2800 c0 -5 4 -10 8 -10 11 0 32 -45 32 -66 0 -41 -34 -85 -94
-120 -33 -21 -76 -48 -94 -62 -40 -29 -50 -24 -26 13 l18 27 -62 -31 c-75 -38
-95 -66 -100 -141 -3 -44 1 -66 17 -98 29 -57 26 -61 -14 -22 -33 32 -35 33
-35 11 0 -48 40 -98 114 -140 51 -29 64 -16 34 35 -18 30 -23 54 -23 104 0
112 30 154 179 255 32 22 74 58 92 79 19 22 34 34 34 28 0 -21 -64 -84 -135
-132 -76 -52 -130 -106 -147 -149 -16 -42 -11 -127 11 -176 11 -25 24 -45 30
-45 5 0 16 -3 24 -6 11 -4 19 5 27 30 7 23 38 59 87 104 81 74 89 99 27 87
-49 -9 -42 6 18 39 70 40 144 114 153 155 10 47 -8 61 -40 31 -33 -31 -39 -22
-15 25 35 68 22 121 -39 162 -35 24 -81 31 -81 13z"></path>
        <path id="node16" d="M1168 2282 c-37 -4 -60 -40 -94 -144 l-28 -88 20 -27 c28 -37 72 -59
93 -45 19 12 18 48 -5 144 -19 77 -11 115 28 137 22 13 30 12 67 -6 41 -20 55
-17 26 7 -18 15 -72 26 -107 22z"></path>
        <path id="node17" d="M1182 2244 c-25 -17 -29 -55 -11 -119 7 -22 15 -65 18 -95 l7 -55 17
32 c10 18 24 59 32 90 l15 58 -4 -61 c-4 -58 -38 -136 -65 -145 -5 -2 -7 -17
-4 -32 5 -23 9 -26 27 -21 71 23 111 97 111 206 0 68 -3 79 -25 103 -14 15
-40 33 -59 41 -40 17 -32 17 -59 -2z"></path>
        <path id="node18" d="M760 2200 l21 -30 -45 6 c-42 6 -46 5 -46 -13 0 -37 24 -47 81 -33
35 9 53 9 58 2 4 -7 22 -7 59 0 51 10 72 28 32 28 -29 0 -111 30 -142 51 -37
27 -43 24 -18 -11z"></path>
        <path id="node19" d="M710 2210 c0 -5 5 -10 10 -10 6 0 10 5 10 10 0 6 -4 10 -10 10 -5 0
-10 -4 -10 -10z"></path>
        <path id="node20" d="M1495 2208 c-16 -6 -31 -12 -33 -13 -1 -1 9 -22 23 -46 13 -24 25
-54 25 -66 0 -17 5 -22 23 -21 12 1 46 -4 75 -11 61 -15 76 -8 90 44 14 49 -4
94 -43 111 -40 16 -116 17 -160 2z"></path>
        <path id="node21" d="M322 2199 c-12 -5 -22 -13 -22 -19 0 -6 4 -9 8 -6 29 18 43 -42 27
-116 -7 -32 10 -101 29 -117 11 -9 22 0 55 50 23 34 41 63 41 66 0 2 -18 35
-40 73 -41 70 -60 83 -98 69z"></path>
        <path id="node22" d="M1393 2148 c-41 -46 -52 -98 -20 -98 6 0 21 -9 33 -21 l22 -21 32 24
c27 19 31 28 27 55 -7 42 -35 83 -56 83 -10 0 -27 -10 -38 -22z"></path>
        <path id="node23" d="M272 2139 c-42 -45 -51 -163 -17 -212 33 -47 115 -76 115 -42 0 8 -6
15 -14 15 -18 0 -66 56 -66 77 0 9 9 2 23 -17 12 -19 29 -36 37 -38 11 -4 9 2
-5 18 -17 19 -20 37 -20 118 0 82 -3 97 -17 100 -9 2 -25 -7 -36 -19z"></path>
        <path id="node24" d="M597 2128 c-26 -21 -49 -86 -41 -122 9 -45 41 -76 78 -76 17 0 36 4
42 8 47 32 60 129 23 176 -23 29 -72 36 -102 14z m92 -24 c26 -34 27 -80 1
-121 -39 -65 -120 -35 -120 44 0 89 73 136 119 77z"></path>
        <path id="node25" d="M622 2113 c-23 -9 -44 -63 -38 -98 8 -42 29 -59 61 -51 27 7 55 56
50 85 -2 9 -4 23 -5 31 0 11 -4 10 -12 -5 -16 -28 -30 -36 -45 -23 -15 12 -18
48 -4 48 5 0 7 -8 4 -19 -6 -25 11 -35 28 -15 10 12 9 18 -7 33 -10 10 -25 17
-32 14z"></path>
        <path id="node26" d="M905 2120 c-165 -46 -160 -43 -163 -84 -4 -44 -21 -47 168 28 74 29
136 59 138 65 6 17 -63 12 -143 -9z"></path>
        <path id="node27" d="M476 2084 c-3 -9 4 -25 21 -40 34 -31 43 -30 43 4 0 21 -7 32 -25 40
-32 15 -32 15 -39 -4z"></path>
        <path id="node28" d="M910 2046 c-130 -53 -182 -80 -201 -102 -13 -16 -12 -16 17 -1 17 9
55 19 85 22 l54 6 -71 -35 c-40 -20 -94 -56 -122 -81 -47 -42 -51 -44 -64 -28
-27 37 -102 93 -125 93 -13 0 -23 5 -23 11 0 20 88 3 131 -26 36 -23 43 -25
56 -12 13 12 10 15 -22 20 -29 5 -49 19 -90 64 -43 48 -55 56 -67 46 -16 -14
-62 -96 -72 -130 -6 -20 -4 -21 32 -16 36 5 40 3 79 -49 28 -37 51 -85 72
-151 34 -108 39 -162 16 -194 -15 -21 -14 -23 9 -29 17 -4 37 1 61 16 46 28
65 21 65 -25 0 -25 -5 -37 -17 -41 -64 -20 -70 -49 -12 -58 46 -7 69 6 95 57
17 32 13 41 -30 69 -27 17 -28 19 -6 13 14 -4 32 -13 40 -20 19 -15 107 -45
133 -45 55 0 199 136 235 220 20 49 27 174 13 242 -12 55 -14 58 -52 68 -61
17 -112 83 -95 125 8 23 -9 19 -124 -29z m121 -129 c64 -43 87 -177 48 -281
-12 -33 -31 -63 -47 -74 -45 -31 -121 -55 -178 -55 -44 -1 -59 4 -80 24 -57
52 -78 147 -51 230 12 36 93 112 169 159 44 27 97 26 139 -3z"></path>
        <path id="node29" d="M885 1878 c-83 -44 -144 -98 -151 -134 -21 -114 26 -217 102 -221 28
-2 34 0 19 6 -19 8 -19 8 4 16 l25 8 -26 13 c-27 14 -48 59 -48 100 0 36 49
84 92 91 33 5 41 2 73 -30 19 -19 35 -43 35 -53 0 -15 2 -16 9 -5 14 21 -6 65
-38 84 -56 33 -151 15 -176 -34 -26 -48 -15 -150 18 -171 9 -6 9 -8 0 -8 -43
0 -63 124 -31 191 37 77 157 91 226 27 27 -26 30 -84 6 -134 -20 -42 -30 -50
-95 -75 -47 -17 -49 -19 -18 -15 64 8 126 44 145 84 22 46 30 168 14 216 -21
65 -107 85 -185 44z"></path>
        <path id="node30" d="M860 1722 c-33 -27 -39 -100 -10 -129 37 -40 112 -25 141 28 14 26
-5 84 -34 104 -29 20 -70 19 -97 -3z m102 -19 c28 -25 24 -77 -8 -102 -35 -27
-59 -26 -89 4 -28 28 -33 55 -9 55 12 0 15 6 10 24 -3 12 -3 26 1 30 13 12 77
6 95 -11z"></path>
        <path id="node31" d="M1336 1996 c-9 -25 -24 -50 -32 -56 -19 -17 -19 -94 1 -110 8 -7 15
-22 15 -35 0 -38 12 -36 54 9 41 44 41 45 41 122 -1 68 -4 79 -24 95 -13 11
-27 19 -31 19 -4 0 -15 -20 -24 -44z"></path>
        <path id="node32" d="M715 1923 c-16 -8 -42 -27 -57 -41 l-27 -25 -36 28 c-50 37 -53 27
-6 -19 l39 -38 36 36 c20 19 53 45 74 55 20 11 30 20 22 20 -8 0 -28 -7 -45
-16z"></path>
        <path id="node33" d="M1233 1880 c-30 -12 -29 -24 3 -49 37 -29 40 -27 36 19 -4 43 -5 43
-39 30z"></path>
        <path id="node34" d="M392 1830 c-14 -23 -15 -99 -2 -190 6 -40 6 -67 0 -70 -24 -15 67
-141 115 -161 18 -7 18 -8 -4 -8 -31 -1 -107 78 -116 120 -5 20 -13 29 -26 29
-10 0 -19 -7 -19 -15 0 -8 5 -15 11 -15 6 0 8 -8 4 -19 -8 -27 59 -101 87 -93
17 4 19 2 13 -18 -6 -20 -4 -22 14 -17 14 3 21 0 21 -9 0 -16 31 -34 58 -34
18 0 19 3 8 35 -7 19 -15 38 -19 41 -14 14 -6 35 27 71 18 21 31 43 30 48 -2
6 -24 9 -48 7 -65 -6 -122 27 -135 76 -26 100 1 159 68 148 20 -3 41 -12 47
-21 14 -19 24 -19 24 1 0 23 -98 114 -123 114 -12 0 -28 -9 -35 -20z m44 -281
c14 -13 43 -24 76 -28 37 -6 48 -10 35 -15 -28 -13 -81 2 -117 34 -19 16 -31
29 -26 30 6 0 20 -9 32 -21z"></path>
        <path id="node35" d="M1386 1790 c-20 -22 -36 -42 -36 -44 0 -2 22 -21 49 -41 l50 -36 43
43 43 44 -47 37 c-26 20 -52 37 -57 37 -5 0 -25 -18 -45 -40z"></path>
        <path id="node36" d="M1210 1766 c0 -25 -10 -76 -22 -113 -19 -59 -31 -78 -92 -138 -91
-89 -140 -113 -202 -97 -64 17 -71 16 -83 -20 -19 -53 -39 -68 -91 -68 -68 0
-109 -16 -103 -41 4 -15 8 -17 19 -8 8 7 15 10 17 8 1 -2 7 -13 13 -24 14 -25
44 -32 44 -11 0 9 6 16 14 16 7 0 30 20 50 45 41 50 73 57 126 30 28 -15 32
-14 87 17 32 17 60 33 62 35 2 1 -2 9 -9 18 -14 17 0 21 16 5 6 -6 19 -8 29
-4 17 7 17 8 -1 21 -16 12 -14 13 22 13 37 0 84 22 84 38 0 4 -15 13 -32 20
l-33 13 50 23 c52 24 91 67 105 117 8 28 7 29 -18 23 -23 -4 -24 -3 -9 6 21
13 47 62 47 88 0 14 -7 19 -27 19 -16 0 -36 3 -45 7 -16 7 -18 2 -18 -38z"></path>

        <path id="node38" d="M436 1714 c-18 -17 -22 -100 -6 -124 7 -11 10 -3 10 30 0 48 21 90
46 90 8 0 14 5 14 10 0 16 -47 12 -64 -6z"></path>
        <path id="node39" d="M1501 1698 c-17 -17 -31 -35 -31 -39 0 -4 12 -15 28 -24 42 -27 83
-68 92 -91 8 -19 14 -21 57 -17 26 3 49 7 51 8 1 1 -7 27 -18 58 -23 60 -95
137 -129 137 -10 0 -33 -14 -50 -32z"></path>
        <path id="node40" d="M483 1693 c-20 -7 -35 -77 -24 -106 16 -42 76 -62 100 -34 9 11 3 14
-31 13 -37 -1 -43 2 -52 27 -8 22 -7 30 4 37 11 7 11 12 2 23 -12 14 2 25 48
40 8 3 4 5 -10 5 -14 0 -31 -2 -37 -5z"></path>
        <path id="node41" d="M1618 1510 c-16 -10 -15 -14 7 -57 14 -25 25 -52 25 -58 0 -7 6 -18
14 -25 12 -9 17 -4 26 30 6 23 10 58 8 78 -3 33 -6 37 -33 39 -16 2 -38 -2
-47 -7z"></path>
        <path id="node42" d="M1517 1469 c-32 -24 -84 -129 -93 -187 -9 -57 21 -92 78 -92 22 0 38
-5 38 -11 0 -8 -12 -10 -35 -6 -38 6 -42 2 -20 -27 25 -33 109 -55 149 -40 24
9 21 79 -4 97 -18 13 -18 16 -4 63 24 79 3 173 -48 208 -28 20 -30 20 -61 -5z
m44 -31 c3 -26 -3 -41 -24 -69 -31 -43 -41 -35 -12 11 27 43 29 50 17 50 -12
0 -49 -70 -57 -108 -4 -18 -11 -30 -16 -26 -17 10 14 97 49 137 18 20 41 23
43 5z"></path>
        <path id="node43" d="M661 1448 c-29 -18 -38 -20 -64 -10 -35 13 -47 8 -47 -19 0 -16 4
-19 21 -14 14 5 27 0 41 -15 l20 -22 27 26 c15 14 35 26 44 26 11 0 17 8 17
25 0 31 -15 31 -59 3z"></path>
        <path id="node44" d="M1250 1414 c-6 -14 -10 -47 -10 -73 l0 -47 66 -11 c77 -13 104 -4
104 37 -1 27 -18 51 -68 93 -43 35 -79 36 -92 1z m60 -5 c0 -5 -4 -7 -10 -4
-21 13 -9 -20 18 -48 23 -26 24 -28 5 -18 -25 13 -53 49 -53 68 0 7 9 13 20
13 11 0 20 -5 20 -11z"></path>
        <path id="node45" d="M575 1387 c-14 -34 51 -77 70 -47 3 6 -2 13 -12 17 -10 4 -26 16 -35
28 -15 19 -17 19 -23 2z"></path>
        <path id="node46" d="M802 1328 c-7 -7 -12 -20 -12 -29 0 -24 -60 -69 -91 -69 -14 0 -30
-5 -37 -12 -6 -6 -31 -15 -54 -19 l-43 -6 38 -2 38 -1 -30 -37 c-20 -24 -31
-49 -31 -68 l0 -30 21 33 c12 17 24 32 28 32 3 0 5 -20 3 -45 -3 -36 1 -54 19
-80 25 -37 46 -47 34 -17 -16 38 -18 55 -7 48 7 -4 12 -13 12 -19 1 -26 60
-77 90 -77 6 0 1 19 -12 43 -16 31 -22 60 -23 108 0 66 0 67 48 118 44 46 77
103 77 131 0 14 -53 13 -68 -2z"></path>
        <path id="node47" d="M881 1298 c-14 -39 -14 -51 -1 -43 6 3 10 4 10 1 0 -3 -21 -20 -46
-38 -98 -70 -102 -152 -17 -322 30 -60 35 -77 31 -122 -4 -51 -3 -53 25 -65
28 -12 104 -14 138 -3 14 4 39 44 39 63 0 4 -15 15 -34 23 -25 13 -43 14 -72
7 -56 -12 -59 -11 -39 11 33 36 83 41 148 15 27 -11 24 51 -4 65 -27 15 -108
11 -136 -7 -34 -20 -28 1 9 32 32 27 70 30 121 10 16 -7 16 -4 -4 34 -13 26
-18 48 -14 59 6 13 9 10 15 -16 4 -18 16 -42 26 -53 10 -11 20 -39 23 -62 6
-40 8 -42 43 -45 20 -2 55 2 78 8 l42 11 -20 22 c-29 31 -62 107 -61 142 1 29
1 29 8 5 15 -49 42 -90 59 -90 34 0 142 81 142 107 0 7 -4 13 -9 13 -16 0 -77
66 -101 110 -44 79 -132 116 -122 51 5 -34 -22 -91 -43 -91 -11 0 -15 11 -15
38 0 48 -11 64 -46 68 -24 3 -40 -8 -96 -66 -38 -39 -70 -70 -72 -70 -13 0 17
79 44 116 17 24 34 60 37 80 6 35 5 36 -16 25 -14 -8 -27 -9 -40 -1 -16 8 -21
5 -30 -22z"></path>
        <path id="node48" d="M976 1264 c-4 -14 -21 -44 -38 -65 -46 -57 -28 -57 25 0 51 54 54 63
33 80 -11 9 -15 6 -20 -15z"></path>
        <path id="node49" d="M1390 1260 c0 -5 5 -10 10 -10 6 0 10 5 10 10 0 6 -4 10 -10 10 -5 0
-10 -4 -10 -10z"></path>
        <path id="node50" d="M1252 1233 c14 -16 33 -41 41 -58 l16 -30 0 35 c1 66 -8 80 -47 80
l-36 0 26 -27z"></path>
        <path id="node51" d="M1321 1228 c5 -18 6 -49 3 -68 l-5 -35 18 23 c11 13 35 25 56 29 20
3 37 9 37 13 0 20 -79 70 -110 70 -5 0 -4 -15 1 -32z"></path>
        <path id="node52" d="M1110 1221 c5 -11 10 -29 10 -41 0 -12 5 -18 10 -15 6 3 10 22 10 41
0 28 -4 34 -20 34 -17 0 -19 -3 -10 -19z"></path>
        <path id="node53" d="M1390 1149 c0 -6 -6 -9 -14 -6 -10 4 -13 -3 -12 -25 2 -35 24 -55 50
-45 24 10 18 63 -6 59 -12 -2 -16 2 -12 13 3 8 3 15 0 15 -3 0 -6 -5 -6 -11z"></path>
        <path id="node54" d="M1446 1125 c4 -25 1 -43 -10 -60 -21 -32 -21 -31 15 -44 43 -15 59
-14 59 4 0 17 -57 135 -66 135 -3 0 -2 -16 2 -35z"></path>
        <path id="node55" d="M1516 1078 c26 -82 54 -115 54 -63 0 14 7 28 15 31 23 9 18 19 -20
37 -47 23 -58 22 -49 -5z"></path>
        <path id="node56" d="M1393 1003 c-14 -39 -48 -76 -85 -93 l-40 -18 34 -25 c18 -14 68 -37
111 -52 43 -16 97 -40 120 -56 37 -24 52 -27 124 -28 45 0 85 4 88 9 17 27
-92 160 -130 160 -11 0 -44 -11 -72 -25 -62 -28 -71 -15 -21 34 28 28 30 33
20 57 -10 21 -17 25 -40 20 -18 -4 -40 1 -65 14 -35 19 -38 19 -44 3z"></path>
        <path id="node57" d="M1324 960 c-21 -16 -47 -30 -56 -30 -10 0 -18 -4 -18 -10 0 -25 70 1
104 39 30 33 13 34 -30 1z"></path>
        <path id="node58" d="M660 943 c0 -18 29 -48 47 -49 10 0 31 -1 46 -2 34 -2 26 -22 -8 -22
-30 0 -39 -14 -25 -39 7 -15 23 -21 58 -23 l47 -3 -29 -15 c-23 -11 -30 -12
-34 -2 -8 25 -18 11 -14 -22 4 -31 6 -33 40 -32 44 1 52 10 52 58 0 64 -26
103 -84 126 -71 28 -96 35 -96 25z"></path>
        <path id="node59" d="M955 920 c-7 -12 12 -12 40 0 18 8 17 9 -7 9 -15 1 -30 -3 -33 -9z"></path>
        <path id="node60" d="M1536 909 c-37 -29 -32 -42 9 -22 19 9 35 20 35 24 0 18 -20 17 -44
-2z"></path>
        <path id="node61" d="M700 880 c0 -5 5 -10 10 -10 6 0 10 5 10 10 0 6 -4 10 -10 10 -5 0
-10 -4 -10 -10z"></path>
        <path id="node62" d="M1240 835 c-19 -7 -50 -14 -68 -14 l-33 -1 24 -32 c13 -18 27 -45 31
-60 6 -27 60 -68 89 -68 9 0 18 -4 21 -9 8 -13 -61 4 -80 20 -8 7 -28 14 -44
16 -34 3 -62 -30 -62 -73 0 -34 16 -44 72 -44 61 0 101 27 139 93 36 63 38 78
14 118 -17 29 -40 41 -30 16 3 -9 -4 -12 -22 -11 -39 2 -39 3 -2 23 33 18 34
19 13 30 -11 6 -22 11 -24 10 -2 0 -19 -7 -38 -14z"></path>
        <path id="node63" d="M985 821 c17 -4 40 -13 52 -19 26 -14 33 -15 33 -4 0 14 -49 32 -83
31 l-32 -1 30 -7z"></path>
        <path id="node64" d="M1097 823 c-3 -4 -12 -31 -20 -59 l-15 -52 25 13 c18 10 33 11 51 4
45 -17 50 6 12 48 -19 21 -38 42 -41 46 -4 5 -9 5 -12 0z"></path>
        <path id="node65" d="M646 718 c-22 -31 -20 -91 3 -119 l19 -24 -5 48 c-4 37 -2 52 13 68
10 11 23 18 30 15 7 -3 17 1 23 8 9 10 6 15 -11 20 -40 10 -56 7 -72 -16z"></path>
        <path id="node66" d="M746 698 c-20 -28 -20 -49 -2 -93 22 -52 42 -46 38 11 -5 51 16 84
52 84 17 0 18 2 6 10 -28 18 -78 12 -94 -12z"></path>
        <path id="node67" d="M1086 698 c-21 -30 -21 -92 0 -109 15 -12 16 -11 10 8 -9 27 18 89
42 98 14 5 14 7 2 15 -23 15 -38 12 -54 -12z"></path>
        <path id="node68" d="M1616 701 c-28 -31 -32 -85 -7 -110 22 -22 56 -28 66 -12 3 5 1 12
-5 16 -15 9 -12 68 5 92 13 19 13 22 -1 27 -26 10 -40 7 -58 -13z"></path>
        <path id="node69" d="M1720 710 c0 -5 11 -10 25 -10 14 0 25 5 25 10 0 6 -11 10 -25 10
-14 0 -25 -4 -25 -10z"></path>
        <path id="node70" d="M1540 694 c-19 -22 -16 -70 5 -94 26 -29 35 -25 28 14 -3 19 -1 48 5
65 10 27 9 31 -7 31 -10 0 -24 -7 -31 -16z"></path>
        <path id="node71" d="M840 689 c-32 -13 -40 -26 -40 -71 0 -27 6 -41 22 -52 33 -23 37 -20
31 24 -5 34 -1 43 24 69 23 23 27 31 16 35 -18 7 -22 7 -53 -5z"></path>
        <path id="node72" d="M687 683 c-11 -10 -8 -72 3 -94 14 -24 45 -26 36 -2 -4 9 -10 36 -13
60 -6 41 -12 51 -26 36z"></path>
        <path id="node73" d="M937 674 c-55 -17 -76 -51 -58 -91 23 -50 87 -20 126 58 l25 49 -22
-1 c-13 0 -45 -7 -71 -15z"></path>
        <path id="node74" d="M1691 677 c-17 -17 -13 -62 9 -82 40 -37 99 11 84 69 -4 17 -13 22
-43 23 -21 1 -43 -3 -50 -10z"></path>

      </g>
    </svg>